<svg xmlns="http://www.w3.org/2000/svg" width="18.342" height="21.193" viewBox="0 0 18.342 21.193">
  <path id="bag" d="M18.338,20.5,16.727,5.157a.631.631,0,0,0-.627-.565H13.073V3.9a3.9,3.9,0,0,0-7.8,0v.69H2.241a.631.631,0,0,0-.627.565L0,20.5a.631.631,0,0,0,.627.7H17.711a.631.631,0,0,0,.628-.7ZM6.53,3.9a2.641,2.641,0,0,1,5.282,0v.69H6.53ZM1.33,19.931,2.809,5.854H5.268v1.39a.631.631,0,1,0,1.261,0V5.854h5.282v1.39a.631.631,0,1,0,1.261,0V5.854h2.459L17.01,19.931Zm0,0" transform="translate(0.001)"/>
</svg>
